<?xml version="1.0" encoding="UTF-8" standalone="no"?>
<!DOCTYPE svg PUBLIC "-//W3C//DTD SVG 1.1//EN" "http://www.w3.org/Graphics/SVG/1.1/DTD/svg11.dtd">
<svg width="100%" height="100%" viewBox="0 0 100 100" version="1.1" xmlns="http://www.w3.org/2000/svg" xmlns:xlink="http://www.w3.org/1999/xlink" xml:space="preserve" style="fill-rule:evenodd;clip-rule:evenodd;stroke-linejoin:round;stroke-miterlimit:1.41421;">
    <rect id="Artboard1" x="0" y="0" width="100" height="100" style="fill:none;"/>
    <clipPath id="_clip1">
        <rect id="Artboard11" x="0" y="0" width="100" height="100"/>
    </clipPath>
    <g clip-path="url(#_clip1)">
        <g transform="matrix(-1,0,0,-1,100.249,98)">
            <path d="M66.254,46.947L38.916,14.152C37.785,12.793 35.762,12.609 34.404,13.744C33.043,14.881 32.859,16.896 33.992,18.256L59.621,49L33.992,79.742C32.861,81.105 33.045,83.121 34.404,84.256C35.761,85.391 37.785,85.207 38.916,83.848L66.254,51.055C66.752,50.459 67,49.729 67,49C67,48.27 66.752,47.541 66.254,46.947Z" style="fill:white;fill-rule:nonzero;"/>
        </g>
    </g>
</svg>
