<?xml version="1.0" encoding="utf-8"?>
<!-- Generator: Adobe Illustrator 22.1.0, SVG Export Plug-In . SVG Version: 6.00 Build 0)  -->
<svg version="1.1" id="Layer_1" xmlns="http://www.w3.org/2000/svg" xmlns:xlink="http://www.w3.org/1999/xlink" x="0px" y="0px"
	 viewBox="0 0 512 512" style="enable-background:new 0 0 512 512;" xml:space="preserve">
<style type="text/css">
	.st0{fill:#FFFFFF;}
</style>
<g>
	<g>
		<g>
			<path class="st0" d="M432.8,384h-88.9c-5.4,0-8.1-3.5-9.1-5.1s-2.9-5.6-0.5-10.4l130.4-260.8c3-6,4.6-12.8,4.6-21.4
				c0-24.1-19.6-43.6-43.6-43.6c-16.6,0-31.6,9.2-39,24.1L320,200.2c-11.3-20.8-34.7-32.4-58.4-28.9l-113.4,17.4
				c-17.1,2.6-31.9,13.4-39.6,28.9L51.7,331.4c-5.9,11.8-9,25.1-9,38.3c0,32.6,18.1,62,47.3,76.6l100.3,50.1
				c20.4,10.2,43.3,15.6,66.1,15.6c15,0,29.8-2.3,44.1-6.7l150.7-47.1c2.8-0.9,5.1-2.8,6.4-5.4l7.9-15.9c2.5-5.1,3.9-10.7,3.9-16.3
				C469.3,400.4,452.9,384,432.8,384z M446.4,427.4l-5.9,11.8l-146.4,45.7c-30.9,9.6-65.4,6.9-94.3-7.6L99.5,427.2
				c-21.9-11-35.5-33-35.5-57.5c0-9.9,2.4-19.9,6.8-28.7l56.9-113.8c4.6-9.3,13.5-15.8,23.8-17.3l113.4-17.4
				c15.1-2.3,30.2,5.5,37,19.2l8.6,17.2c3.6,7.2,15.5,7.2,19.1,0l76.2-152.4c3.8-7.6,11.4-12.3,19.9-12.3C438,64,448,74,448,88.2
				c0,3.4-0.8,6.9-2.4,10L315.2,359c-5,10-4.5,21.6,1.4,31.1s16,15.2,27.2,15.2h88.9c8.4,0,15.2,6.8,15.2,15.2
				C448,422.9,447.4,425.3,446.4,427.4z"/>
			<path class="st0" d="M53.3,128.5c0.9,0,1.8-0.1,2.6-0.3l85.3-21.8c3.5-0.9,6.3-3.5,7.5-6.9c1.1-3.4,0.5-7.2-1.7-10l-22-28.1
				c38.2-25.7,83.6-40,131-40c37.7,0,73.7,8.7,107,25.8c5.2,2.7,11.7,0.6,14.4-4.6c2.7-5.2,0.6-11.7-4.6-14.4
				C336.9,9.7,296.5,0,256,0c-55.6,0-108.8,18-152.2,50.2c-0.2,0.2-0.5,0.3-0.7,0.5c-0.1,0.1-0.1,0.1-0.2,0.2
				c-22.4,16.7-42.1,37.2-58.4,60.9c-2.5,3.7-2.5,8.5,0.1,12.1C46.6,126.8,49.9,128.5,53.3,128.5z M107.9,74.1l12.3,15.6L81,99.7
				C89.3,90.4,98.3,81.9,107.9,74.1z"/>
		</g>
	</g>
</g>
</svg>
