<svg width="20" height="20" xmlns="http://www.w3.org/2000/svg"><path fill="#9B9B9B" d="M10 0C4.478 0 0 4.478 0 10c0 5.523 4.478 10 10 10 5.523 0 10-4.477 10-10 0-5.522-4.477-10-10-10zm5.055 8.037c.152 3.367-2.358 7.12-6.803 7.12a6.772 6.772 0 0 1-3.669-1.075 4.815 4.815 0 0 0 3.544-.991 2.399 2.399 0 0 1-2.237-1.663 2.4 2.4 0 0 0 1.082-.04 2.397 2.397 0 0 1-1.92-2.378c.323.18.691.287 1.084.3a2.397 2.397 0 0 1-.741-3.197 6.794 6.794 0 0 0 4.933 2.501 2.396 2.396 0 0 1 4.08-2.183 4.774 4.774 0 0 0 1.52-.581 2.403 2.403 0 0 1-1.053 1.324 4.775 4.775 0 0 0 1.374-.377c-.32.481-.725.903-1.194 1.24z"/></svg>